<svg xmlns="http://www.w3.org/2000/svg" data-name="Layer 1" viewBox="0 0 100 100" x="0px" y="0px">
    <defs>
        <style>
            .cls-1 {
                fill-rule:evenodd;
                fill:red;
            }
        </style>
    </defs>
    <path class="cls-1" d="M97.21,31.44c0,23.59-21.59,37.73-44.11,60.5a4.37,4.37,0,0,1-6.2,0C24.38,69.17,2.79,55,2.79,31.44,2.79,17.82,13.37,6.77,26.4,6.77c10.53,0,16.36,4.91,21.68,14.73A2.15,2.15,0,0,0,50,22.64a2.12,2.12,0,0,0,1.91-1.14C57.24,11.68,63.07,6.77,73.6,6.77,86.63,6.77,97.21,17.82,97.21,31.44Z"/>
</svg>
