<svg xmlns="http://www.w3.org/2000/svg" xmlns:xlink="http://www.w3.org/1999/xlink" version="1.1" x="0px" y="0px" viewBox="0 0 100 100" style="enable-background:new 0 0 100 100;" xml:space="preserve">
  <path d="M72.71,7.07c-5.23,0-9.51,1.24-13.08,3.79c-3.28,2.34-6.12,5.86-8.95,11.08c-0.15,0.27-0.37,0.4-0.68,0.4  s-0.53-0.14-0.68-0.4c-2.83-5.22-5.68-8.74-8.95-11.08c-3.57-2.55-7.85-3.79-13.08-3.79c-13.26,0-24.04,11.24-24.04,25.06  c0,8.57,2.8,16.38,8.83,24.6c5.37,7.33,12.92,14.42,20.91,21.93c4.25,3.99,8.64,8.12,13.1,12.62c1.06,1.07,2.42,1.64,3.92,1.64  c1.51,0,2.86-0.57,3.92-1.64c4.46-4.5,8.85-8.63,13.1-12.62c7.99-7.51,15.54-14.6,20.91-21.93c6.02-8.22,8.83-16.03,8.83-24.6  C96.75,18.32,85.97,7.07,72.71,7.07z M65.2,76.74c-4.26,4.01-8.67,8.15-13.16,12.69C51.47,90,50.8,90.28,50,90.28  c-0.81,0-1.47-0.28-2.04-0.85c-4.49-4.54-8.9-8.68-13.16-12.69C18.65,61.56,5.9,49.58,5.9,32.14c0-12.36,9.59-22.41,21.39-22.41  c8.92,0,14.44,3.78,19.71,13.48C47.6,24.33,48.72,25,50,25c1.28,0,2.4-0.67,3.01-1.79c0,0,0,0,0,0c5.26-9.7,10.79-13.48,19.71-13.48  c11.79,0,21.39,10.05,21.39,22.41C94.1,49.58,81.35,61.56,65.2,76.74z" fill="white" stroke="white" stroke-width="2"/>
</svg>


